<?xml version="1.0" encoding="utf-8"?>
<!-- Generator: Adobe Illustrator 22.1.0, SVG Export Plug-In . SVG Version: 6.00 Build 0)  -->
<svg version="1.1" id="Capa_1" xmlns="http://www.w3.org/2000/svg" xmlns:xlink="http://www.w3.org/1999/xlink" x="0px" y="0px"
	 viewBox="0 0 488.9 488.9" style="enable-background:new 0 0 488.9 488.9;" xml:space="preserve">
<style type="text/css">
	.st0{fill:#EDE9EC;}
</style>
<g>
	<g id="XMLID_1_">
		<g>
			<path class="st0" d="M485,232.9c5.1,6.8,5.1,16.3,0,23.1c-62.5,83-147.2,134.1-240.6,134.1C151,390.1,66.3,339,3.8,255.9
				c-5.1-6.8-5.1-16.3,0-23.1C66.3,149.8,151,98.7,244.4,98.7C337.8,98.7,422.5,149.8,485,232.9z M347,251.1
				c3.9-62.1-47.3-113.2-109.3-109.3c-51.2,3.2-92.7,44.7-95.9,95.9c-3.9,62.1,47.3,113.2,109.3,109.3
				C302.2,343.7,343.7,302.2,347,251.1z"/>
			<path class="st0" d="M240.9,189.1c33.4-2.1,61,25.4,58.8,58.8c-1.8,27.7-24.2,50-51.7,51.7c-33.4,2.1-61-25.4-58.8-58.8
				C190.9,213.2,213.3,190.9,240.9,189.1z"/>
		</g>
		<g>
		</g>
	</g>
</g>
</svg>
