<?xml version="1.0" encoding="utf-8"?>
<!-- Generator: Adobe Illustrator 22.1.0, SVG Export Plug-In . SVG Version: 6.00 Build 0)  -->
<svg version="1.1" id="Livello_1" xmlns="http://www.w3.org/2000/svg" xmlns:xlink="http://www.w3.org/1999/xlink" x="0px" y="0px"
	 viewBox="0 0 24 24" style="enable-background:new 0 0 24 24;" xml:space="preserve">
<style type="text/css">
	.st0{fill:#EDE9EC;}
</style>
<g id="XMLID_1_">
	<g>
		<path class="st0" d="M12,2c5.5,0,10,4.5,10,10c0,4.4-2.9,8.1-6.8,9.5c-0.5,0.1-0.7-0.2-0.7-0.5c0-0.3,0-1.4,0-2.7
			c0-0.9-0.3-1.5-0.7-1.8c2.2-0.3,4.6-1.1,4.6-4.9c0-1.1-0.4-2-1-2.7c0.1-0.3,0.4-1.3-0.1-2.6c0,0-0.8-0.3-2.7,1
			c-0.8-0.2-1.7-0.3-2.5-0.3c-0.8,0-1.7,0.1-2.5,0.3c-1.9-1.3-2.7-1-2.7-1C6.2,7.5,6.6,8.5,6.7,8.8c-0.6,0.7-1,1.6-1,2.7
			c0,3.8,2.3,4.7,4.6,4.9c-0.3,0.3-0.6,0.7-0.6,1.3c-0.6,0.3-2,0.7-2.9-0.8c0,0-0.5-1-1.5-1c0,0-1,0-0.1,0.6c0,0,0.7,0.3,1.1,1.5
			c0,0,0.6,1.9,3.4,1.3c0,0.8,0,1.5,0,1.7c0,0.3-0.2,0.6-0.7,0.5C4.9,20.1,2,16.4,2,12C2,6.5,6.5,2,12,2z"/>
	</g>
	<g>
	</g>
</g>
</svg>
