<?xml version="1.0" encoding="utf-8"?>
<!-- Generator: Adobe Illustrator 22.1.0, SVG Export Plug-In . SVG Version: 6.00 Build 0)  -->
<svg version="1.1" id="Livello_1" xmlns="http://www.w3.org/2000/svg" xmlns:xlink="http://www.w3.org/1999/xlink" x="0px" y="0px"
	 viewBox="0 0 300 300" style="enable-background:new 0 0 300 300;" xml:space="preserve">
<style type="text/css">
	.st0{fill:#5A6794;}
	.st1{fill:#D8CDB0;}
	.st2{fill:#EAB56F;}
</style>
<g>
	<g id="XMLID_1_">
		<g>
			<path class="st0" d="M213,113.2c0,3-0.3,5.8-0.9,8.4c-3.3,14.4-15.5,23.3-36.3,26.5c-5.7,0.9-12,1.3-18.9,1.3h-41.8
				c25,0,37.9-12.3,37.9-36.2c0-64.5-38.4-97.9-112.9-98.2V5.5h0.2c10.7,0,20.9,0.3,30.6,1c0.8,0.1,1.6,0.1,2.4,0.2s1.6,0.1,2.4,0.2
				c21.5,1.7,40.5,5,57,9.9c0,0,0,0,0,0c6.1,1.8,11.9,3.8,17.3,6.1c0,0,0,0,0,0c1.1,0.5,2.1,0.9,3.2,1.4c0,0,0,0,0,0
				c1.6,0.7,3.1,1.4,4.6,2.2c11.7,5.7,21.5,12.5,29.5,20.5c1.4,1.4,2.7,2.8,4,4.3c0.3,0.4,0.6,0.7,0.9,1.1c0.6,0.7,1.2,1.5,1.8,2.2
				c0.3,0.4,0.6,0.8,0.9,1.1c0.6,0.8,1.2,1.5,1.7,2.3c0.6,0.8,1.1,1.6,1.6,2.4c0.5,0.8,1,1.6,1.5,2.4c0.5,0.8,1,1.6,1.5,2.5
				c0.5,0.8,0.9,1.7,1.4,2.5c0.7,1.3,1.3,2.6,1.9,3.9c0.4,0.9,0.8,1.8,1.1,2.7C210.6,85.7,213,98.8,213,113.2z"/>
			<path class="st1" d="M213,113.2c0-14.4-2.4-27.5-7.2-39c-0.4-0.9-0.8-1.8-1.1-2.7c-0.6-1.3-1.2-2.6-1.9-3.9
				c-0.4-0.8-0.9-1.7-1.4-2.5c-0.5-0.8-1-1.7-1.5-2.5c-0.5-0.8-1-1.6-1.5-2.4c-0.5-0.8-1.1-1.6-1.6-2.4c-0.6-0.8-1.1-1.5-1.7-2.3
				c-0.3-0.4-0.6-0.8-0.9-1.1c-0.6-0.8-1.2-1.5-1.8-2.2c-0.3-0.4-0.6-0.7-0.9-1.1c-1.3-1.5-2.6-2.9-4-4.3c-8-8-17.8-14.8-29.5-20.5
				c-1.5-0.7-3.1-1.5-4.6-2.2c0,0,0,0,0,0c-1.1-0.5-2.1-0.9-3.2-1.4c0,0,0,0,0,0c-5.4-2.3-11.2-4.3-17.3-6.1c0,0,0,0,0,0
				c-16.5-4.9-35.5-8.2-57-9.9c-0.8-0.1-1.6-0.1-2.4-0.2s-1.6-0.1-2.4-0.2c-9.7-0.6-19.9-1-30.6-1h-0.2H40V0
				c145.9,0.2,221,51.2,221,150S185.9,299.8,40,300v-6.1h0.3c5.3,0,10.6-0.1,15.7-0.2c1.7-0.1,3.4-0.1,5.1-0.2
				c2.5-0.1,5-0.2,7.4-0.4c2.5-0.1,4.9-0.3,7.3-0.5c3.2-0.2,6.3-0.5,9.4-0.8c2.3-0.2,4.6-0.5,6.8-0.8
				c70.3-8.4,110.5-35.6,119.3-80.8c1.2-6.3,1.8-12.8,1.8-19.8c0-3.4-0.3-6.6-0.9-9.6c-3.4-17.1-16.6-27.4-39.1-30.5
				c-4.9-0.7-10.3-1-16.1-1c6.9,0,13.3-0.4,18.9-1.3c20.8-3.1,33-12.1,36.3-26.5C212.7,119,213,116.2,213,113.2z"/>
			<path class="st0" d="M213,190.5c0,6.9-0.6,13.5-1.8,19.8c-8.8,45.1-48.9,72.4-119.3,80.8c-2.2,0.3-4.5,0.5-6.8,0.8
				c-3.1,0.3-6.2,0.6-9.4,0.8c-2.4,0.2-4.8,0.3-7.3,0.5c-2.4,0.1-4.9,0.3-7.4,0.4c-1.7,0.1-3.4,0.1-5.1,0.2
				c-5.1,0.1-10.3,0.2-15.7,0.2H40V282c37.3-0.1,65.5-8,84.4-23.3c18.9-15.3,28.5-38.1,28.5-68.2c0-27.1-12.9-41.1-37.8-41.1h41.8
				c5.8,0,11.2,0.3,16.1,1c22.5,3.1,35.7,13.4,39.1,30.5C212.7,183.9,213,187.1,213,190.5z"/>
			<path class="st2" d="M204.6,71.5c0.4,0.9,0.8,1.8,1.1,2.7C205.4,73.3,205,72.4,204.6,71.5z"/>
			<path class="st2" d="M201.4,65.1c0.5,0.8,0.9,1.7,1.4,2.5C202.3,66.8,201.8,65.9,201.4,65.1z"/>
			<path class="st2" d="M198.4,60.2c0.5,0.8,1,1.6,1.5,2.4C199.4,61.8,198.9,61,198.4,60.2z"/>
			<path class="st2" d="M173,150.4c22.6,3.1,35.8,13.4,39.1,30.5C208.7,163.9,195.5,153.6,173,150.4z"/>
			<path class="st2" d="M195,55.6c0.6,0.8,1.2,1.5,1.7,2.3C196.2,57.1,195.6,56.3,195,55.6z"/>
			<path class="st2" d="M192.3,52.2c0.6,0.7,1.2,1.5,1.8,2.2C193.6,53.7,192.9,52.9,192.3,52.2z"/>
			<path class="st2" d="M191.4,51.1c-1.3-1.5-2.6-2.9-4-4.3C188.8,48.2,190.1,49.6,191.4,51.1z"/>
			<path class="st2" d="M153.2,24.2c1.6,0.7,3.1,1.4,4.6,2.2C156.4,25.6,154.8,24.9,153.2,24.2z"/>
			<path class="st2" d="M150,22.8c1.1,0.5,2.1,0.9,3.2,1.4C152.2,23.7,151.1,23.3,150,22.8z"/>
			<path class="st2" d="M132.7,16.7c6.1,1.8,11.9,3.8,17.3,6.1C144.6,20.5,138.8,18.5,132.7,16.7z"/>
			<path class="st2" d="M132.7,16.7c-16.5-4.9-35.5-8.2-57-9.9C97.2,8.5,116.2,11.8,132.7,16.7z"/>
			<path class="st2" d="M73.3,6.6c-0.8-0.1-1.6-0.1-2.4-0.2C71.7,6.5,72.5,6.6,73.3,6.6z"/>
		</g>
		<g>
		</g>
	</g>
</g>
</svg>
