<?xml version="1.0" encoding="utf-8"?>
<!-- Generator: Adobe Illustrator 22.1.0, SVG Export Plug-In . SVG Version: 6.00 Build 0)  -->
<svg version="1.1" id="Livello_1" xmlns="http://www.w3.org/2000/svg" xmlns:xlink="http://www.w3.org/1999/xlink" x="0px" y="0px"
	 viewBox="0 0 300 300" style="enable-background:new 0 0 300 300;" xml:space="preserve">
<style type="text/css">
	.st0{fill:#ED9F31;}
	.st1{fill:#BE4B88;}
	.st2{enable-background:new    ;}
	.st3{fill:#EDE9EC;}
	.st4{fill:#109193;}
</style>
<title>logo4</title>
<rect x="95" y="111" class="st0" width="110" height="35"/>
<rect x="51" y="212" class="st1" width="195" height="35"/>
<g class="st2">
	<path class="st3" d="M121.7,60.3c3.9-1,10.8-1.6,20.8-1.6c13.7,0,24.1,4,31.3,12c6.2,6.8,9.2,15.7,9.2,26.6
		c0,13.7-3.9,24-11.8,30.8c-7.1,6.2-17,9.4-29.8,9.4c-8,0-14.6-0.5-19.8-1.6V60.3z M137.5,124.6c1.6,0.4,3.6,0.6,6,0.6
		c15.4,0,23.2-9.1,23.2-27.4c0-9-2.6-16-7.7-20.8c-4.2-3.8-9.4-5.8-15.8-5.8c-1.8,0-3.7,0.2-5.6,0.6V124.6z"/>
</g>
<g class="st2">
	<path class="st3" d="M74,160.3c3.9-1,10.8-1.6,20.8-1.6c13.7,0,24.1,4,31.3,12c6.2,6.8,9.2,15.7,9.2,26.6c0,13.7-3.9,24-11.8,30.8
		c-7.1,6.2-17,9.4-29.8,9.4c-8,0-14.6-0.5-19.8-1.6V160.3z M89.8,224.6c1.6,0.4,3.6,0.6,6,0.6c15.4,0,23.2-9.1,23.2-27.4
		c0-9-2.6-16-7.7-20.8c-4.2-3.8-9.4-5.8-15.8-5.8c-1.8,0-3.7,0.2-5.6,0.6V224.6z"/>
	<path class="st3" d="M178.6,236v-75.7c6.1-1,13.4-1.6,22.1-1.6c10,0,17.4,2.4,22.3,7.1c3.8,3.8,5.8,8.7,5.8,14.9
		c0,3.8-1.6,7.2-4.7,10.3c-3.1,3.1-6.6,4.6-10.4,4.6v0.1c5.3,0.6,9.5,2.6,12.5,6.1c3.1,3.5,4.6,8,4.6,13.3c0,7.5-3.2,13.3-9.5,17.3
		c-5.5,3.4-12.9,5.2-22.1,5.2C191.2,237.6,184.3,237.1,178.6,236z M194.3,172.2v17.5h8.9c6.7,0,10.1-2.8,10.1-8.5
		c0-6.3-4.1-9.6-12.2-9.7h-0.4C198.6,171.5,196.5,171.7,194.3,172.2z M194.3,202.3v22c2,0.6,4.8,1,8.5,1c7.8,0,11.6-3.4,11.6-10.2
		c0-8.5-4-12.7-12-12.7H194.3z"/>
</g>
<rect class="st4" width="80" height="20"/>
<rect y="20" class="st4" width="20" height="260"/>
<rect y="280" class="st4" width="80" height="20"/>
<rect x="220" class="st4" width="80" height="20"/>
<rect x="280" y="20" class="st4" width="20" height="260"/>
<rect x="220" y="280" class="st4" width="80" height="20"/>
</svg>
