<?xml version="1.0" encoding="utf-8"?>
<!-- Generator: Adobe Illustrator 22.1.0, SVG Export Plug-In . SVG Version: 6.00 Build 0)  -->
<svg version="1.1" id="Livello_1" xmlns="http://www.w3.org/2000/svg" xmlns:xlink="http://www.w3.org/1999/xlink" x="0px" y="0px"
	 viewBox="0 0 24 24" style="enable-background:new 0 0 24 24;" xml:space="preserve">
<style type="text/css">
	.st0{fill:#EDE9EC;}
</style>
<g id="XMLID_1_">
	<g>
		<path class="st0" d="M10,15.3c0.1,0.5,0.1,1,0,1.5L9.9,17c-0.1,0.3-0.3,0.6-0.5,0.8c-0.6,0.6-1.4,0.9-1.7,0.7
			c-0.4-0.2-0.2-1.1,0.5-1.8C8.9,15.9,9.9,15.4,10,15.3L10,15.3z"/>
		<path class="st0" d="M12,22c-2.6,0-4.9-1-6.7-2.6l1.4-0.2c0.1,0.1,0.3,0.2,0.4,0.3c1.3,0.4,2.7-0.3,3.4-1.4c0.7-1,0.6-2.4,0.3-3.1
			c0.4-0.1,0.9-0.2,1.5-0.1c1.8,0.2,2.1,1.3,2,1.8c-0.1,0.5-0.4,0.7-0.6,0.8c-0.1,0.1-0.2,0.1-0.1,0.1c0,0.1,0.1,0.1,0.2,0.1
			c0.1,0,0.9-0.4,0.9-1.2c0-1.1-1-2.3-2.8-2.3c-0.8,0-1.2,0.1-1.6,0.2c0,0-0.1-0.1-0.1-0.1c-1.1-1.2-3.2-2.1-3.1-3.7
			c0-0.6,0.2-2.1,4-4c3.1-1.5,5.6-1.1,6-0.2c0.6,1.3-1.3,3.8-4.5,4.2c-1.2,0.1-1.9-0.3-2-0.5c-0.2-0.2-0.2-0.2-0.3-0.2
			c-0.1,0.1,0,0.2,0,0.3c0.1,0.2,0.5,0.7,1.2,0.9c0.6,0.2,2,0.3,3.8-0.4c1.9-0.8,3.4-2.8,3-4.6l0.1,0.1c-0.1-0.4-0.3-0.7-0.6-1
			l1.7,0C21,7.1,22,9.4,22,12C22,17.5,17.5,22,12,22z"/>
		<path class="st0" d="M6.5,17.2c-0.4,0.9-0.2,1.6,0.1,2l-1.4,0.2C3.3,17.6,2,14.9,2,12C2,6.5,6.5,2,12,2c2.9,0,5.6,1.3,7.4,3.3
			l-1.7,0c-1.1-1-3.4-1.2-5.6-0.4c-1.7,0.6-3.5,1.5-4.8,2.7c-1.5,1.4-1.8,2.7-1.7,3.2c0.4,1.8,2.9,3.1,3.9,3.9v0
			C9.3,14.9,7,16.1,6.5,17.2z"/>
	</g>
	<g>
	</g>
</g>
</svg>
