<?xml version="1.0" encoding="utf-8"?>
<!-- Generator: Adobe Illustrator 22.1.0, SVG Export Plug-In . SVG Version: 6.00 Build 0)  -->
<svg version="1.1" id="Livello_1" xmlns="http://www.w3.org/2000/svg" xmlns:xlink="http://www.w3.org/1999/xlink" x="0px" y="0px"
	 viewBox="0 0 24 24" style="enable-background:new 0 0 24 24;" xml:space="preserve">
<style type="text/css">
	.st0{fill:#EDE9EC;}
</style>
<g id="XMLID_1_">
	<g>
		<path class="st0" d="M21.6,11.1C21.6,11.1,21.6,11.1,21.6,11.1c0.5,0.5,0.5,1.3,0,1.8l-8.7,8.7c0,0,0,0,0,0
			c-0.5,0.5-1.3,0.5-1.8,0l-8.7-8.7c-0.5-0.5-0.5-1.3,0-1.8l6-6l2.3,2.3c0,0,0,0,0,0c-0.3,0.8,0.1,1.7,0.8,2v5.5
			c-0.2,0.1-0.3,0.2-0.5,0.3c0,0,0,0,0,0c-0.3,0.3-0.4,0.7-0.4,1.1c0,0.4,0.1,0.8,0.4,1.1c0.6,0.6,1.6,0.6,2.2,0
			c0.6-0.6,0.6-1.6,0-2.2c-0.1-0.1-0.3-0.2-0.4-0.3V9.5l2.1,2.1c-0.2,0.6-0.1,1.2,0.3,1.7c0.6,0.6,1.6,0.6,2.2,0
			c0.4-0.4,0.6-1,0.4-1.6c-0.3-0.8-1.1-1.2-1.9-0.9l-2.2-2.2c0.1-0.3,0.1-0.7,0-1c-0.3-0.8-1.1-1.2-1.9-1L9.3,4.2l1.8-1.8
			c0.5-0.5,1.3-0.5,1.8,0L21.6,11.1z"/>
	</g>
	<g>
	</g>
</g>
</svg>
